<svg id="Слой_1" data-name="Слой 1" xmlns="http://www.w3.org/2000/svg" viewBox="0 0 708.66 88.76"><defs><style>.cls-1{fill:#163e6c;}</style></defs><title>textLogo</title><polygon class="cls-1" points="45.9 61.08 58.92 27.68 87.37 27.68 80.87 44.38 115.98 44.38 133.28 0 133.28 0 133.28 0 10.37 0 23.82 27.68 41.1 27.68 18.64 40.92 0 88.76 0 88.76 98.76 88.76 109.55 61.08 45.9 61.08"/><polygon class="cls-1" points="567.32 0 551.93 39.49 523.48 39.49 523.48 39.49 538.87 0 503.75 0 469.16 88.76 504.27 88.76 511.73 69.62 511.73 69.62 546.2 54.21 532.73 88.76 567.84 88.76 602.44 0 567.32 0"/><path class="cls-1" d="M276.79,97.35l-47,39.94,15.56-39.94H210.23l-34.6,88.76h35.12l46.87-39.57L242.2,186.11h35.11l29.34-75.27,9.2,14.19H338L287.5,186.11h40.44L378.41,125h11.43L366,186.11h35.11l29.5-75.7L440.13,125h22.13l-50.48,61.08h40.43l24-29,18.65,17.36-4.56,11.68h35.12L560,97.35ZM506,146H485.37l17.32-21h11.43Z" transform="translate(-66.61 -97.35)"/><polygon class="cls-1" points="697.87 27.68 708.66 0 609.98 0 599.19 27.68 646.81 27.68 624.35 40.92 616.5 61.08 604.21 61.08 593.42 88.76 654.45 88.76 665.24 61.08 651.61 61.08 664.62 27.68 697.87 27.68"/></svg>